<?xml version="1.0" standalone="no"?>
<!DOCTYPE svg PUBLIC "-//W3C//DTD SVG 20010904//EN"
 "http://www.w3.org/TR/2001/REC-SVG-20010904/DTD/svg10.dtd">
<svg version="1.0" xmlns="http://www.w3.org/2000/svg"
 width="1674.000000pt" height="1674.000000pt" viewBox="0 0 1674.000000 1674.000000"
 preserveAspectRatio="xMidYMid meet">
<metadata>
Created by potrace 1.11, written by Peter Selinger 2001-2013
</metadata>
<g transform="translate(0.000000,1674.000000) scale(0.100000,-0.100000)"
fill="#000000" stroke="none">
<path d="M824 15480 c-27 -11 -74 -67 -75 -91 -1 -10 -2 -25 -3 -31 -1 -7 2
-31 6 -53 9 -51 26 -148 33 -200 4 -22 10 -56 15 -75 5 -19 11 -53 14 -75 3
-22 9 -62 15 -90 5 -27 12 -70 16 -95 3 -25 8 -52 10 -60 2 -8 7 -35 10 -60 3
-25 8 -52 10 -60 2 -8 7 -28 9 -45 3 -16 12 -70 21 -120 9 -49 24 -139 35
-200 18 -109 79 -459 120 -690 11 -66 23 -133 26 -150 2 -16 13 -77 24 -135
11 -58 28 -159 40 -225 11 -66 22 -131 24 -145 14 -78 66 -370 70 -395 3 -16
19 -106 36 -200 16 -93 39 -224 51 -290 11 -66 24 -140 29 -165 5 -25 16 -85
25 -135 8 -49 17 -100 19 -111 2 -12 7 -37 10 -55 6 -38 43 -240 50 -279 4
-20 56 -315 81 -455 2 -16 16 -93 30 -170 25 -133 56 -309 69 -385 4 -19 15
-82 26 -140 38 -202 62 -335 65 -355 2 -20 14 -81 22 -120 2 -11 6 -33 8 -50
3 -16 7 -41 10 -55 6 -31 26 -136 31 -170 3 -14 9 -47 14 -75 5 -27 12 -65 15
-84 3 -19 7 -37 9 -40 2 -3 7 -28 10 -56 4 -27 9 -57 11 -65 2 -8 6 -31 9 -50
3 -19 8 -46 11 -60 3 -14 9 -50 15 -80 6 -30 12 -66 15 -80 8 -42 28 -152 39
-212 5 -28 33 -182 41 -223 3 -16 10 -54 15 -83 5 -30 11 -61 14 -70 3 -10 7
-33 10 -52 3 -19 8 -45 10 -56 2 -12 7 -39 10 -60 4 -22 8 -46 11 -54 2 -8 6
-32 9 -52 3 -21 11 -59 17 -85 6 -27 12 -64 15 -83 2 -19 9 -55 14 -80 6 -25
27 -130 46 -235 19 -104 44 -237 55 -295 10 -58 21 -112 24 -120 2 -8 6 -32 9
-53 4 -21 13 -71 20 -110 8 -40 29 -146 46 -237 17 -91 38 -199 46 -240 34
-170 76 -386 79 -405 2 -11 26 -137 55 -280 28 -143 54 -271 56 -285 3 -14 21
-104 40 -200 20 -96 38 -186 40 -200 3 -14 12 -59 21 -100 8 -41 17 -84 19
-95 2 -11 6 -29 8 -40 3 -11 14 -65 25 -120 11 -55 34 -167 51 -250 18 -82 34
-161 36 -175 3 -14 11 -53 19 -86 8 -34 16 -73 19 -85 2 -13 13 -67 25 -119
11 -52 33 -158 50 -235 129 -606 336 -1469 413 -1725 161 -536 235 -688 351
-720 132 -37 219 62 309 350 49 159 160 621 191 800 3 14 19 93 36 175 28 140
38 190 47 240 2 11 6 34 9 50 15 79 36 194 41 225 3 19 12 67 19 105 8 39 21
111 30 160 8 50 17 101 20 115 3 14 8 39 10 55 3 17 10 55 15 85 5 30 12 72
16 94 3 21 8 48 10 60 2 11 11 62 19 111 8 50 17 101 20 115 3 14 10 54 15 90
6 36 13 76 16 90 2 14 7 41 10 60 7 47 10 65 23 135 15 87 18 105 31 192 7 43
14 87 16 98 2 11 13 76 25 145 11 69 22 136 24 150 2 14 20 124 40 245 20 121
38 231 40 245 3 14 8 41 11 60 3 19 23 145 45 280 22 135 42 261 45 280 3 19
7 46 9 60 3 14 7 39 9 55 25 151 37 224 41 245 3 14 7 43 10 65 3 22 7 51 9
65 3 14 17 97 31 185 14 88 28 172 30 188 3 15 7 42 10 60 3 17 10 57 15 87 5
30 12 73 15 95 6 36 34 211 50 305 3 19 8 49 10 65 11 72 17 109 45 270 16 94
32 188 36 210 3 22 23 144 44 270 50 296 44 262 80 470 17 99 33 196 36 215 3
19 26 145 50 280 46 260 46 259 70 390 9 47 18 99 21 115 2 17 22 122 43 235
22 113 41 216 44 230 2 14 25 131 51 260 26 129 49 244 51 255 6 32 63 291 86
390 27 118 116 482 128 520 58 196 109 346 142 418 l41 87 2208 0 c1323 0
2209 -4 2209 -9 0 -32 -173 -386 -310 -636 -46 -82 -96 -175 -113 -205 -16
-30 -35 -65 -43 -77 -7 -12 -66 -113 -130 -225 -64 -111 -124 -214 -133 -228
-9 -14 -22 -36 -29 -50 -6 -14 -30 -54 -52 -89 -22 -34 -40 -65 -40 -67 0 -2
-104 -176 -232 -386 -127 -211 -236 -393 -242 -405 -6 -13 -14 -23 -18 -23 -5
0 -8 -5 -8 -10 0 -6 -29 -56 -64 -113 -35 -56 -155 -250 -266 -432 -236 -384
-514 -831 -929 -1493 -163 -260 -305 -488 -316 -506 -28 -46 -152 -244 -200
-320 -43 -68 -125 -199 -264 -421 -48 -77 -301 -482 -562 -900 -262 -418 -493
-788 -515 -823 -21 -35 -46 -75 -55 -90 -9 -15 -86 -139 -171 -277 -465 -752
-1043 -1715 -1188 -1980 -15 -27 -36 -66 -47 -85 -143 -256 -222 -408 -333
-645 -66 -139 -85 -287 -44 -341 11 -15 33 -37 48 -48 l27 -21 3432 -2 3431
-2 39 22 c66 37 107 135 122 292 3 33 8 74 10 91 6 40 15 226 20 384 5 169 5
1143 0 1405 -18 903 -17 896 -30 1330 -4 116 -8 275 -10 355 -8 266 -15 513
-20 655 -3 77 -7 219 -10 315 -6 206 -13 456 -21 665 -2 83 -7 222 -9 310 -3
88 -7 228 -10 310 -10 311 -20 654 -30 990 -3 105 -8 253 -10 330 -2 77 -7
246 -10 375 -3 129 -8 300 -10 380 -29 1053 -24 2514 9 2547 2 3 126 -211 179
-307 85 -157 113 -211 182 -345 105 -204 113 -219 196 -385 40 -80 76 -152 80
-160 13 -23 236 -484 279 -575 21 -44 74 -156 119 -249 45 -93 81 -170 81
-171 0 -1 33 -72 74 -156 40 -85 83 -176 96 -204 12 -27 40 -87 61 -132 85
-180 119 -253 179 -383 34 -74 70 -153 80 -175 10 -22 39 -84 64 -138 25 -54
46 -100 46 -102 0 -2 21 -47 46 -101 25 -54 111 -243 191 -419 79 -176 155
-342 168 -370 13 -27 42 -93 65 -145 23 -52 50 -114 61 -137 27 -61 132 -296
164 -368 8 -16 26 -57 40 -90 15 -33 43 -96 62 -140 20 -44 46 -103 58 -131
13 -28 123 -280 245 -560 122 -280 230 -527 240 -549 10 -22 59 -137 109 -255
51 -118 98 -228 106 -245 7 -16 52 -122 100 -235 48 -113 92 -218 99 -235 7
-16 19 -43 26 -60 6 -16 63 -152 126 -301 385 -921 710 -1748 871 -2219 56
-166 133 -419 133 -440 0 -9 -454 -12 -1959 -12 l-1958 0 -33 -23 c-33 -24
-60 -73 -60 -111 0 -12 10 -39 22 -60 41 -74 -132 -68 2115 -68 1991 0 2019 0
2058 20 93 45 110 137 64 328 -11 48 -22 93 -24 101 -22 94 -146 456 -267 780
-131 351 -489 1255 -593 1495 -7 17 -63 152 -125 300 -251 603 -557 1316 -867
2025 -137 313 -548 1238 -594 1338 -16 35 -29 65 -29 67 0 2 -15 36 -34 77
-19 40 -113 246 -209 458 -167 368 -492 1074 -592 1285 -26 55 -80 170 -120
255 -40 85 -95 202 -123 260 -443 929 -759 1558 -975 1935 -192 338 -284 445
-380 445 -96 0 -165 -80 -183 -210 -2 -19 -6 -44 -9 -55 -45 -220 -54 -1440
-20 -2740 11 -435 16 -615 20 -735 25 -843 33 -1114 40 -1315 2 -71 7 -218 10
-325 3 -107 7 -258 10 -335 9 -255 15 -448 20 -625 3 -96 7 -240 10 -320 11
-351 17 -570 30 -1035 3 -132 8 -296 10 -365 13 -442 20 -950 20 -1600 0 -779
-7 -1051 -33 -1201 l-8 -44 -3281 -1 -3281 -1 19 48 c10 27 23 56 28 66 6 10
39 77 74 148 70 142 183 351 285 527 12 21 32 55 43 75 60 105 95 166 104 181
6 10 56 96 113 192 57 96 109 184 115 195 7 11 24 39 39 63 16 24 28 45 28 48
0 2 22 39 48 82 26 42 51 84 55 92 4 8 20 34 35 58 15 23 67 109 116 190 137
227 617 1006 873 1417 233 374 358 574 738 1180 116 184 217 346 225 360 8 13
88 140 176 282 255 406 718 1145 736 1173 40 64 194 312 203 328 6 9 20 32 32
49 13 17 23 34 23 37 0 3 31 54 68 113 38 60 116 185 174 278 57 94 152 247
210 340 116 187 546 892 624 1022 357 599 625 1060 754 1298 15 28 46 86 70
130 64 117 214 420 244 492 80 192 94 310 43 377 -58 75 173 68 -2411 68
-2044 0 -2326 -2 -2357 -15 -172 -72 -304 -439 -530 -1477 -11 -52 -23 -108
-25 -125 -3 -16 -9 -46 -14 -65 -5 -19 -11 -48 -14 -65 -3 -16 -21 -109 -41
-205 -20 -96 -38 -188 -41 -205 -3 -16 -25 -136 -49 -265 -53 -279 -54 -285
-60 -330 -3 -19 -10 -55 -15 -80 -5 -25 -12 -61 -15 -80 -7 -42 -16 -98 -22
-125 -2 -11 -22 -123 -44 -250 -22 -126 -42 -241 -44 -255 -5 -25 -52 -300
-61 -355 -4 -28 -17 -103 -28 -165 -12 -70 -16 -98 -21 -125 -14 -87 -45 -273
-49 -295 -3 -14 -7 -43 -11 -65 -3 -22 -10 -65 -15 -95 -5 -30 -12 -68 -14
-85 -20 -122 -57 -344 -60 -365 -7 -39 -47 -282 -51 -310 -2 -14 -15 -95 -29
-180 -14 -85 -28 -173 -31 -195 -3 -22 -8 -51 -11 -65 -2 -14 -6 -36 -9 -49
-2 -12 -7 -42 -9 -65 -3 -22 -8 -52 -11 -66 -3 -14 -14 -83 -25 -155 -12 -71
-22 -137 -25 -145 -2 -8 -6 -35 -9 -60 -4 -25 -9 -58 -11 -75 -17 -93 -25
-144 -30 -180 -4 -22 -8 -51 -11 -65 -2 -14 -7 -45 -10 -70 -3 -25 -8 -54 -10
-65 -3 -11 -7 -36 -10 -55 -6 -37 -43 -261 -48 -295 -12 -65 -76 -458 -82
-500 -3 -16 -11 -66 -19 -110 -8 -44 -16 -96 -19 -115 -3 -19 -7 -44 -10 -55
-2 -11 -7 -42 -10 -69 -4 -27 -9 -52 -10 -55 -2 -3 -7 -28 -10 -56 -4 -27 -13
-86 -21 -130 -8 -44 -16 -93 -19 -110 -7 -46 -136 -781 -151 -860 -7 -38 -16
-86 -19 -105 -25 -137 -93 -484 -122 -625 -19 -93 -37 -179 -39 -190 -51 -248
-153 -631 -165 -618 -20 22 -130 380 -206 668 -33 128 -129 512 -139 560 -2
11 -26 118 -54 238 -28 120 -53 228 -55 240 -3 12 -37 166 -76 342 -38 176
-73 334 -76 350 -3 17 -23 113 -45 215 -22 102 -42 201 -45 220 -3 19 -7 37
-9 40 -2 3 -6 25 -10 50 -4 25 -8 47 -10 51 -2 3 -7 21 -10 40 -3 19 -28 142
-55 274 -73 361 -111 548 -115 570 -2 11 -11 58 -20 105 -9 47 -19 95 -21 108
-3 13 -18 89 -34 170 -16 81 -31 161 -34 177 -3 17 -16 84 -30 150 -13 66 -27
136 -30 155 -3 19 -8 46 -11 60 -5 25 -22 113 -31 160 -3 14 -11 57 -19 95 -8
39 -17 86 -20 105 -6 34 -28 151 -46 240 -4 25 -11 59 -14 75 -3 17 -14 75
-25 130 -11 55 -22 116 -25 135 -3 19 -12 67 -20 105 -8 39 -17 84 -19 100 -3
17 -8 41 -11 55 -2 14 -7 39 -10 55 -3 17 -9 55 -15 85 -6 30 -12 69 -15 85
-3 17 -8 41 -10 55 -3 14 -7 34 -9 45 -2 11 -16 81 -30 155 -14 74 -28 149
-31 165 -2 17 -7 41 -10 55 -3 14 -8 41 -11 60 -3 19 -9 53 -14 75 -5 22 -11
56 -15 75 -3 19 -19 109 -36 200 -17 91 -32 174 -34 185 -1 11 -15 85 -30 165
-15 80 -29 154 -30 165 -2 11 -20 110 -40 220 -20 110 -39 211 -42 225 -2 14
-31 171 -63 350 -54 297 -75 415 -130 720 -10 58 -21 119 -24 135 -20 111 -86
476 -90 505 -3 19 -8 46 -11 60 -3 14 -9 50 -14 80 -5 30 -16 93 -25 140 -8
47 -23 126 -31 175 -22 126 -24 137 -30 165 -13 75 -57 325 -80 455 -14 83
-28 161 -31 175 -2 14 -20 115 -39 225 -20 110 -38 211 -40 225 -3 14 -12 68
-21 120 -9 52 -18 104 -20 115 -12 62 -26 143 -29 160 -1 11 -5 34 -8 50 -4
17 -9 46 -12 65 -3 19 -12 71 -20 115 -8 44 -17 96 -20 115 -3 19 -10 59 -16
88 -6 29 -12 65 -14 80 -4 33 -14 88 -20 122 -10 49 -15 75 -20 110 -3 20 -7
46 -10 59 -2 12 -13 75 -25 139 -11 64 -22 128 -24 142 -3 14 -7 41 -10 60 -3
19 -8 49 -11 65 -3 17 -12 66 -20 110 -8 44 -16 94 -19 110 -10 63 -46 271
-50 291 -2 12 -7 39 -10 60 -14 89 -29 151 -44 176 -28 48 -103 71 -158 48z"/>
</g>
</svg>
