<svg xmlns="http://www.w3.org/2000/svg"  viewBox="0 0 100 100" width="50px" height="50px"><circle cx="78" cy="14" r="1" fill="#f1bc19"/><circle cx="50" cy="50" r="38" fill="#f9dbd2"/><circle cx="84" cy="16" r="4" fill="#f1bc19"/><circle cx="14" cy="26" r="2" fill="#ee3e54"/><circle cx="78" cy="77" r="2" fill="#fbcd59"/><circle cx="17" cy="78" r="4" fill="#fbcd59"/><circle cx="24" cy="83" r="2" fill="#ee3e54"/><circle cx="64.483" cy="78.517" r="2.483" fill="#fff"/><circle cx="16" cy="48" r="1" fill="#fff"/><circle cx="86" cy="31" r="1" fill="#f1bc19"/><circle cx="84" cy="45" r="2" fill="#fff"/><path fill="#78a0cf" d="M66.125,73h-32.25C30.078,73,27,69.922,27,66.125v-32.25C27,30.078,30.078,27,33.875,27h32.25 C69.922,27,73,30.078,73,33.875v32.25C73,69.922,69.922,73,66.125,73z"/><path fill="#472b29" d="M30.5,44.75c-0.138,0-0.25-0.112-0.25-0.25v-7.969c0-0.138,0.112-0.25,0.25-0.25 s0.25,0.112,0.25,0.25V44.5C30.75,44.638,30.638,44.75,30.5,44.75z"/><g><path fill="#472b29" d="M42.813,69.75h-9.281c-1.81,0-3.281-1.472-3.281-3.281V49.25c0-0.138,0.112-0.25,0.25-0.25 s0.25,0.112,0.25,0.25v17.219c0,1.534,1.248,2.781,2.781,2.781h9.281c0.138,0,0.25,0.112,0.25,0.25S42.95,69.75,42.813,69.75z"/></g><g><path fill="#472b29" d="M58.063,69.75h-11c-0.138,0-0.25-0.112-0.25-0.25s0.112-0.25,0.25-0.25h11 c0.138,0,0.25,0.112,0.25,0.25S58.2,69.75,58.063,69.75z"/></g><g><path fill="#472b29" d="M63.469,69.75h-3.156c-0.138,0-0.25-0.112-0.25-0.25s0.112-0.25,0.25-0.25h3.156 c0.138,0,0.25,0.112,0.25,0.25S63.606,69.75,63.469,69.75z"/></g><g><path fill="#472b29" d="M69.5,66.719c-0.138,0-0.25-0.112-0.25-0.25v-6.156c0-0.138,0.112-0.25,0.25-0.25 s0.25,0.112,0.25,0.25v6.156C69.75,66.607,69.638,66.719,69.5,66.719z"/></g><g><path fill="#472b29" d="M69.5,57c-0.138,0-0.25-0.112-0.25-0.25V33.531c0-1.534-1.248-2.781-2.781-2.781H54.313 c-0.138,0-0.25-0.112-0.25-0.25s0.112-0.25,0.25-0.25h12.156c1.81,0,3.281,1.472,3.281,3.281V56.75C69.75,56.888,69.638,57,69.5,57 z"/></g><g><path fill="#472b29" d="M51,30.75H34c-0.138,0-0.25-0.112-0.25-0.25s0.112-0.25,0.25-0.25h17c0.138,0,0.25,0.112,0.25,0.25 S51.138,30.75,51,30.75z"/></g><g><path fill="#472b29" d="M66.125,28.4c3.019,0,5.475,2.456,5.475,5.475v32.25c0,3.019-2.456,5.475-5.475,5.475h-32.25 c-3.019,0-5.475-2.456-5.475-5.475v-32.25c0-3.019,2.456-5.475,5.475-5.475H66.125 M66.125,27h-32.25 C30.078,27,27,30.078,27,33.875v32.25C27,69.922,30.078,73,33.875,73h32.25C69.922,73,73,69.922,73,66.125v-32.25 C73,30.078,69.922,27,66.125,27L66.125,27z"/></g><g><path fill="#fff" d="M47.617,49.152C49.033,48.346,50,46.84,50,45.094c0-2.589-2.099-4.688-4.688-4.688H39h-3h-1v19.156 h1h3h6.434c3.074,0,5.566-2.492,5.566-5.566C51,51.77,49.588,49.886,47.617,49.152z M39,43.656h4.893 c1.163,0,2.107,0.943,2.107,2.106v0.225c0,1.163-0.943,2.106-2.107,2.106H39V43.656z M46.719,53.868 c0,1.333-1.08,2.413-2.413,2.413H39V51h5.306c1.333,0,2.413,1.081,2.413,2.413V53.868z"/><path fill="#472b29" d="M45.435,59.813H35c-0.138,0-0.25-0.112-0.25-0.25V40.406c0-0.138,0.112-0.25,0.25-0.25h10.313 c2.723,0,4.938,2.215,4.938,4.938c0,1.595-0.793,3.093-2.098,4.014c1.871,0.895,3.098,2.803,3.098,4.888 C51.25,57.204,48.642,59.813,45.435,59.813z M35.25,59.313h10.185c2.931,0,5.315-2.385,5.315-5.316c0-2.04-1.294-3.893-3.22-4.61 c-0.092-0.034-0.154-0.117-0.162-0.214c-0.008-0.097,0.041-0.189,0.125-0.237c1.393-0.792,2.257-2.264,2.257-3.841 c0-2.447-1.99-4.438-4.438-4.438H35.25V59.313z M44.306,56.531H39c-0.138,0-0.25-0.112-0.25-0.25V51c0-0.138,0.112-0.25,0.25-0.25 h5.306c1.469,0,2.663,1.195,2.663,2.663v0.455C46.969,55.337,45.774,56.531,44.306,56.531z M39.25,56.031h5.056 c1.192,0,2.163-0.97,2.163-2.163v-0.455c0-1.193-0.971-2.163-2.163-2.163H39.25V56.031z M43.894,48.344H39 c-0.138,0-0.25-0.112-0.25-0.25v-4.438c0-0.138,0.112-0.25,0.25-0.25h4.894c1.3,0,2.356,1.057,2.356,2.356v0.225 C46.25,47.287,45.193,48.344,43.894,48.344z M39.25,47.844h4.644c1.023,0,1.856-0.833,1.856-1.856v-0.225 c0-1.024-0.833-1.856-1.856-1.856H39.25V47.844z"/></g><g><path fill="#fff" d="M62.208,55.063c-0.372,1.143-1.803,1.975-3.083,1.975h-0.25c-1.588,0-2.875-1.271-2.875-2.839v-0.74 h6h3.976C65.987,53.294,66,52.761,66,52.594c0-4.09-3.134-7.406-7-7.406s-7,3.316-7,7.406S55.134,60,59,60 c3.917,0,5.631-2.063,6.593-4.938H62.208z M56,50.989c0-1.568,1.287-2.839,2.875-2.839h0.25c1.588,0,2.875,1.271,2.875,2.839v0.123 h-6V50.989z"/><path fill="#472b29" d="M59,60.25c-3.998,0-7.25-3.435-7.25-7.656s3.252-7.656,7.25-7.656s7.25,3.435,7.25,7.656 c0,0.17-0.014,0.713-0.023,0.879c-0.009,0.132-0.118,0.235-0.25,0.235H56.25v0.49c0,1.428,1.178,2.589,2.625,2.589h0.25 c1.246,0,2.522-0.809,2.846-1.802c0.033-0.103,0.129-0.173,0.237-0.173h3.385c0.08,0,0.156,0.039,0.203,0.104 c0.047,0.065,0.06,0.149,0.034,0.225C64.647,58.675,62.541,60.25,59,60.25z M59,45.438c-3.722,0-6.75,3.21-6.75,7.156 S55.278,59.75,59,59.75c3.181,0,5.118-1.372,6.24-4.438h-2.859c-0.466,1.104-1.881,1.975-3.256,1.975h-0.25 c-1.723,0-3.125-1.386-3.125-3.089v-0.74c0-0.138,0.112-0.25,0.25-0.25h9.736c0.008-0.218,0.014-0.502,0.014-0.615 C65.75,48.648,62.722,45.438,59,45.438z M62,51.363h-6c-0.138,0-0.25-0.112-0.25-0.25v-0.124c0-1.703,1.402-3.089,3.125-3.089h0.25 c1.723,0,3.125,1.386,3.125,3.089v0.124C62.25,51.251,62.138,51.363,62,51.363z M56.253,50.863h5.494 c-0.067-1.369-1.218-2.463-2.622-2.463h-0.25C57.471,48.4,56.32,49.493,56.253,50.863z"/></g><g><rect width="8" height="1.938" x="55" y="41.563" fill="#fff"/><path fill="#472b29" d="M63,43.75h-8c-0.138,0-0.25-0.112-0.25-0.25v-1.938c0-0.138,0.112-0.25,0.25-0.25h8 c0.138,0,0.25,0.112,0.25,0.25V43.5C63.25,43.638,63.138,43.75,63,43.75z M55.25,43.25h7.5v-1.438h-7.5V43.25z"/></g></svg>