<svg height="37" viewBox="0 0 37 37" width="37" xmlns="http://www.w3.org/2000/svg"><g fill="none" fill-rule="evenodd" stroke="#006883" transform="translate(1 1)"><path d="m.50538831.54904442c.67385108-.48448239 33.01677739-.94435596 33.86125409 0 .8444768.94435597.8444768 33.24581488 0 33.98465918-.8444767.7388443-33.18740301.4925312-33.86125409 0-.67385108-.4925313-.67385108-33.50017678 0-33.98465918z" stroke-width="1.5"/><g fill="#006883" stroke-width=".75" transform="translate(5 11)"><path d="m8.69102687 0c1.98570353.67914583 2.97855523 1.71665928 2.97855523 3.11254036s-.5914914 2.47443444-1.77447428 3.2356601c2.05172808 1.22167963 2.89143248 2.67925044 2.51911308 4.37271244-.3723194 1.6934619-1.6133841 2.786491-3.72319403 3.2790871h-8.00486717l-.1861597-14zm-2.35395646 7.76556781h-.31575569c-.62022405.00119576-1.46781055.00896819-2.54275949.02331729v3.7001935h4.24286826c.19176122 0 1.69115838-.6192765 1.50499868-2.00885914-.1861597-1.38958263-1.68774511-1.64437368-1.95879867-1.69133436-.08282192-.0143491-.39300628-.02212153-.93055309-.02331729zm.14377325-5.47873264h-.62343082c-.59764765.00205409-1.39060018.00924341-2.37885761.02156795v3.30328407c.9870709.01214419 1.78068218.0190083 2.38083382.02059232h.48790239c.48407587-.00158402.77469211-.00844813.87184872-.02059232.33519032-.04189746 1.47188671-.52666809 1.47188671-1.67185572 0-1.14518764-1.28902852-1.58706-1.47188671-1.63142835-.05079394-.01232454-.29689277-.01951386-.7382965-.02156795z"/><path d="m20.0111655 2.88192698c4.5033948.12527824 5.5413643 6.10105427 4.7434059 6.10105427h-7.7315257c-.1981394 0 .1285882 2.61688865 2.175777 2.73799475 1.3647925.0807375 2.2711166-.3316244 2.7189723-1.2370856h2.6735028c.2928855 0-1.3064862 3.5161096-5.0150479 3.5161096-3.7085618 0-5.5762499-2.71543-5.5762499-5.29986832 0-2.58443836 1.5077706-5.94348294 6.0111655-5.8182047zm-.6386401 2.26467582c-1.7173514 0-2.4681041 2.09953425-2.1513402 2.09953425h4.4275943c.2756179 0-.5589028-2.09953425-2.2762541-2.09953425zm3.3927536-5.1466028v1.60558904l-6.265279-.02378082v-1.58180822z"/></g></g></svg>