<?xml version="1.0" encoding="UTF-8"?>
<svg width="37px" height="37px" viewBox="0 0 37 37" version="1.1" xmlns="http://www.w3.org/2000/svg" xmlns:xlink="http://www.w3.org/1999/xlink">
    <title>Dribbble Icon</title>
    <g id="Page-1" stroke="none" stroke-width="1" fill="none" fill-rule="evenodd">
        <g id="1.-Home-S" transform="translate(-212.000000, -1721.000000)" stroke="#DD187F">
            <g id="Footer" transform="translate(0.000000, 1592.000000)">
                <g id="Dribbble-Icon" transform="translate(213.000000, 130.000000)">
                    <path d="M0.505388308,0.549044425 C1.17923939,0.0645620286 33.5221657,-0.395311541 34.3666424,0.549044425 C35.2111192,1.49340039 35.2111192,33.7948593 34.3666424,34.5337036 C33.5221657,35.2725479 1.17923939,35.0262348 0.505388308,34.5337036 C-0.168462769,34.0411723 -0.168462769,1.03352682 0.505388308,0.549044425 Z" id="Path-2" stroke-width="1.5" fill="#DD187F" opacity="0.4"></path>
                    <g id="Ball" transform="translate(9.000000, 8.000000)" stroke-width="0.9">
                        <circle id="Oval" cx="9" cy="9" r="8.55"></circle>
                        <path d="M6.3,1.0179 C6.3,1.0179 9.25988002,4.67867521 10.9241814,8.82855 C12.3780661,12.4537585 12.5649,16.6392 12.5649,16.6392" id="Path-12"></path>
                        <path d="M0.6102,7.6491 C4.14708812,7.86084459 6.94368812,7.66266793 9,7.05457004 C11.0563119,6.44647214 13.1241608,5.20836334 15.2035468,3.34024364" id="Path-13"></path>
                        <path d="M2.55325438,14.5997406 C4.13374,12.8313159 6.01394789,11.502213 8.19387807,10.612432 C10.3673735,9.72527732 13.4683813,9.2817 17.4969014,9.2817" id="Path-14"></path>
                    </g>
                </g>
            </g>
        </g>
    </g>
</svg>