<svg xmlns="http://www.w3.org/2000/svg"  viewBox="0 0 100 100" width="50px" height="50px"><path fill="#ee3e54" d="M13,27c-1.105,0-2,0.895-2,2s0.895,2,2,2s2-0.895,2-2S14.105,27,13,27z"/><path fill="#f1bc19" d="M77,12c-0.552,0-1,0.448-1,1s0.448,1,1,1s1-0.448,1-1S77.552,12,77,12z"/><path fill="#fce0a2" d="M50,13c-20.435,0-37,16.565-37,37s16.565,37,37,37s37-16.565,37-37S70.435,13,50,13z"/><path fill="#f1bc19" d="M83,11c-2.209,0-4,1.791-4,4s1.791,4,4,4s4-1.791,4-4S85.209,11,83,11z"/><path fill="#ee3e54" d="M87,22c-1.105,0-2,0.895-2,2s0.895,2,2,2s2-0.895,2-2S88.105,22,87,22z"/><path fill="#fbcd59" d="M81,74c-1.105,0-2,0.895-2,2s0.895,2,2,2s2-0.895,2-2S82.105,74,81,74z M15,59c-2.209,0-4,1.791-4,4 c0,2.209,1.791,4,4,4s4-1.791,4-4C19,60.791,17.209,59,15,59z"/><path fill="#ee3e54" d="M25,85c-1.105,0-2,0.895-2,2s0.895,2,2,2s2-0.895,2-2S26.105,85,25,85z"/><path fill="#fff" d="M18.5,51c-1.381,0-2.5,1.119-2.5,2.5s1.119,2.5,2.5,2.5s2.5-1.119,2.5-2.5S19.881,51,18.5,51z"/><path fill="#f1bc19" d="M21,66c-0.552,0-1,0.448-1,1s0.448,1,1,1s1-0.448,1-1S21.552,66,21,66z"/><path fill="#fff" d="M80,33c-0.552,0-1,0.448-1,1s0.448,1,1,1s1-0.448,1-1S80.552,33,80,33z"/><path fill="#f26d9e" d="M35,72.3c-4,0-7.3-3.3-7.3-7.3V35c0-4,3.3-7.3,7.3-7.3h30c4,0,7.3,3.3,7.3,7.3v30	c0,4-3.3,7.3-7.3,7.3H35z"/><path fill="#472b29" d="M65,28.4c3.6,0,6.6,3,6.6,6.6v30c0,3.6-3,6.6-6.6,6.6H35c-3.6,0-6.6-3-6.6-6.6V35	c0-3.6,3-6.6,6.6-6.6H65 M65,27H35c-4.4,0-8,3.6-8,8v30c0,4.4,3.6,8,8,8h30c4.4,0,8-3.6,8-8V35C73,30.6,69.4,27,65,27L65,27z"/><path fill="#fdfcee" d="M68.812,48.213v1.8v14.3c0,2.5-2,4.5-4.5,4.5h-28c-2.5,0-4.5-2-4.5-4.5v-28c0-2.5,2-4.5,4.5-4.5h25.4	h2.6c2.5,0,4.5,2,4.5,4.5v3.4v2v1v1.1v2.9V48.213"/><path fill="#472b29" d="M68.5,47.4c-0.3,0-0.5-0.2-0.5-0.5V43c0-0.3,0.2-0.5,0.5-0.5S69,42.7,69,43v3.9	C69,47.2,68.8,47.4,68.5,47.4z M68.5,40.5c-0.3,0-0.5-0.2-0.5-0.5v-2c0-0.3,0.2-0.5,0.5-0.5S69,37.7,69,38v2	C69,40.3,68.8,40.5,68.5,40.5z"/><path fill="#472b29" d="M64,69H36c-2.8,0-5-2.2-5-5V36c0-2.8,2.2-5,5-5h25.4c0.3,0,0.5,0.2,0.5,0.5S61.7,32,61.4,32H36	c-2.2,0-4,1.8-4,4v28c0,2.2,1.8,4,4,4h28c2.2,0,4-1.8,4-4V49.6c0-0.3,0.2-0.5,0.5-0.5s0.5,0.2,0.5,0.5V64C69,66.8,66.8,69,64,69z"/><path fill="#ee538f" d="M50.001,40.566c-5.21-0.003-9.437,4.219-9.439,9.43s4.219,9.437,9.43,9.439c0.003,0,0.006,0,0.01,0	c5.21,0.003,9.437-4.219,9.439-9.43c0.003-5.21-4.219-9.437-9.43-9.439C50.007,40.566,50.004,40.566,50.001,40.566z"/><path fill="#472b29" d="M50.001,60C44.486,60,40,55.514,40,50.001C40,44.486,44.486,40,50.001,40	C55.514,40,60,44.486,60,50.001C60,55.515,55.514,60,50.001,60z M50.001,41.131c-4.891,0-8.871,3.979-8.871,8.871	s3.979,8.869,8.871,8.869s8.869-3.979,8.869-8.869S54.891,41.131,50.001,41.131z"/><path fill="#472b29" d="M53.961,58.488c-0.005,0-0.009,0-0.012,0c-0.188-0.007-0.333-0.165-0.327-0.351	c0.259-6.948-5.922-16.407-6.992-16.603c-0.179-0.033-0.312-0.203-0.287-0.383c0.025-0.18,0.179-0.312,0.356-0.292	c1.67,0.166,7.854,10.46,7.6,17.303C54.293,58.345,54.143,58.488,53.961,58.488z"/><path fill="#472b29" d="M43.571,48.932c-1.185,0-2.079-0.086-2.496-0.165c-0.13-0.025-0.328-0.063-0.397-0.268	c-0.06-0.177,0.036-0.37,0.214-0.428c0.092-0.031,0.188-0.02,0.267,0.024c0.937,0.251,10.707,1,15.513-4.725	c0.119-0.144,0.334-0.16,0.478-0.042c0.142,0.121,0.162,0.334,0.041,0.478C53.568,48.119,47.205,48.932,43.571,48.932z M43.175,56.013c-0.078,0-0.158-0.027-0.221-0.082c-0.141-0.122-0.157-0.337-0.035-0.478c4.943-5.723,15.6-5.752,16.444-5.588	c0.119,0.024,0.259,0.124,0.297,0.24c0.06,0.177-0.035,0.37-0.212,0.429c-0.081,0.026-0.166,0.023-0.24-0.008	c-0.915-0.15-11.167,0.032-15.775,5.37C43.365,55.974,43.27,56.013,43.175,56.013z"/></svg>