<?xml version="1.0" encoding="UTF-8"?>
<svg width="35px" height="35px" viewBox="0 0 35 35" version="1.1" xmlns="http://www.w3.org/2000/svg" xmlns:xlink="http://www.w3.org/1999/xlink">
    <title>LinkedIn icon</title>
    <g id="Page-1" stroke="none" stroke-width="1" fill="none" fill-rule="evenodd">
        <g id="1.-Home-S" transform="translate(-39.000000, -1722.000000)">
            <g id="Footer" transform="translate(0.000000, 1592.000000)">
                <g id="LinkedIn-icon" transform="translate(39.000000, 130.000000)">
                    <path d="M0.505388308,0.549044425 C1.17923939,0.0645620286 33.5221657,-0.395311541 34.3666424,0.549044425 C35.2111192,1.49340039 35.2111192,33.7948593 34.3666424,34.5337036 C33.5221657,35.2725479 1.17923939,35.0262348 0.505388308,34.5337036 C-0.168462769,34.0411723 -0.168462769,1.03352682 0.505388308,0.549044425 Z" id="Combined-Shape" fill="#006883"></path>
                    <g id="linked-in-Logo" transform="translate(7.000000, 8.000000)" fill="#FEFEFE" stroke="#FEFEFE" stroke-width="0.75">
                        <polygon id="Path-4" points="1.05714286 7.77142857 5.42857143 7.77142857 5.42857143 19.7714286 1.05714286 19.7714286"></polygon>
                        <circle id="Oval" cx="3.2" cy="3.14285714" r="2.19642857"></circle>
                        <path d="M8.85714286,7.42857143 L8.85714286,19.7714286 L13.0254341,19.7714286 C12.9913979,15.4265612 13.0332282,12.9657155 13.1509251,12.3888916 C13.3274705,11.5236556 14.1394147,10.6926596 15.1253822,10.6926596 C16.1113497,10.6926596 17.0496901,10.8921808 17.4285714,12.1568705 C17.4285714,13.023289 17.4285714,15.561475 17.4285714,19.7714286 L20.405874,19.7714286 C20.7399053,14.1022792 20.6046139,10.6737077 20,9.48571429 C19.0930791,7.70372413 17.5652361,7.37471509 15.9444077,7.51428571 C14.3235794,7.65385634 12.7145203,8.35064622 12.7145203,8.35064622 C12.7145203,8.35064622 12.7145203,8.04328796 12.7145203,7.42857143 L8.85714286,7.42857143 Z" id="Path-5"></path>
                    </g>
                </g>
            </g>
        </g>
    </g>
</svg>